<svg version="1.0" xmlns="http://www.w3.org/2000/svg" preserveAspectRatio="xMidYMid meet" viewBox="70 0.2 86 99.5">  <g transform="translate(0.000000,140.000000) scale(0.100000,-0.100000)" fill="#000000" stroke="none"> <path d="M917 1273 l-217 -125 0 -247 0 -247 217 -126 217 -125 210 121 211 122 2 255 3 254 -167 95 c-92 52 -188 107 -213 122 l-46 26 -217 -125z m195 21 c5 -42 6 -42 -169 -138 l-123 -67 -31 22 -31 21 104 61 c57 33 132 77 168 98 36 21 68 38 71 39 4 0 9 -16 11 -36z m195 -148 c143 -81 149 -83 168 -66 46 40 45 42 45 -160 l0 -191 -32 25 -33 24 -110 -62 c-60 -34 -138 -77 -172 -96 l-61 -34 -147 83 -147 82 -33 -26 c-19 -14 -36 -25 -39 -25 -3 0 -6 86 -6 190 0 201 4 216 45 170 10 -11 22 -20 27 -20 5 0 84 43 176 95 92 52 168 94 169 95 0 0 68 -38 150 -84z m199 -471 c-2 -8 -331 -205 -342 -205 -2 0 -4 21 -4 48 l0 47 147 82 146 82 28 -22 c15 -12 27 -26 25 -32z"></path> <path d="M977 1083 c-4 -3 -7 -62 -7 -130 l0 -123 93 2 92 2 -82 3 -83 4 0 54 0 55 70 0 c39 0 70 -3 70 -7 1 -14 79 -99 80 -86 0 6 -19 35 -43 64 l-43 52 -67 -2 -67 -2 0 50 0 51 75 0 c43 0 75 4 75 10 0 11 -152 14 -163 3z"></path> <path d="M1262 924 c-24 -30 -42 -59 -40 -65 3 -9 98 103 98 116 0 15 -20 -2 -58 -51z"></path> <path d="M1153 785 c-43 -53 -51 -70 -34 -63 10 3 91 104 91 113 0 15 -19 -2 -57 -50z"></path> <path d="M1220 835 c0 -13 81 -115 92 -115 5 0 -5 20 -23 45 -35 48 -69 83 -69 70z"></path> </g> </svg>